<svg xmlns="http://www.w3.org/2000/svg" viewBox="0 0 140.7 106.02"><defs><style>.cls-1{fill:#a6b2d7;}</style></defs><title>Ресурс 4яясссссс</title><g id="Слой_2" data-name="Слой 2"><g id="Слой_1-2" data-name="Слой 1"><path class="cls-1" d="M52,52.79c15.51,0,31,0,46.52,0a22.36,22.36,0,0,0,7.88-1.58c.58-.22.74-.53.39-1.09a18.64,18.64,0,0,1-2.43-11.76,22.77,22.77,0,0,1,4.33-11c1.5-2.2,1.49-2.23,3.74-.74a21.17,21.17,0,0,1,9.54,13.87c.13.67.3.71.93.63,5.28-.68,10.49-.71,15.39,1.86.69.36,1.29.86,1.94,1.28a.93.93,0,0,1,.42,1.29,17.35,17.35,0,0,1-6.67,8.91,21.18,21.18,0,0,1-13.58,4,1.59,1.59,0,0,0-1.77,1.22,82.3,82.3,0,0,1-11.79,21.17,60.75,60.75,0,0,1-14,13.1,68.44,68.44,0,0,1-20.25,9.09,85.31,85.31,0,0,1-13.36,2.44c-2.36.25-4.75.22-7.09.49a61.63,61.63,0,0,1-9.22-.13,65.26,65.26,0,0,1-12.79-1.8,45,45,0,0,1-10.53-3.71A31.21,31.21,0,0,1,7.48,88.74,51.07,51.07,0,0,1,1,70.93a65.5,65.5,0,0,1-.94-14.4A4.24,4.24,0,0,1,3.34,53,13,13,0,0,1,6,52.79Z"/><path class="cls-1" d="M79.23,7.5c0,1.37,0,2.75,0,4.13A3.19,3.19,0,0,1,75.87,15c-2.68,0-5.36,0-8,0-2.34,0-3.58-1.28-3.59-3.58,0-2.65,0-5.29,0-7.93A3.21,3.21,0,0,1,67.71,0h8.05a3.21,3.21,0,0,1,3.47,3.46Z"/><path class="cls-1" d="M71.83,35.35h4.36a2.79,2.79,0,0,1,3,2.86q.08,4.53,0,9.06a2.92,2.92,0,0,1-3.06,2.84H67.54a3.08,3.08,0,0,1-3.29-3.25c0-2.75,0-5.51,0-8.27,0-2,1.27-3.4,3.33-3.26C69,35.42,70.41,35.35,71.83,35.35Z"/><path class="cls-1" d="M71.7,32.44c-1.38,0-2.76-.07-4.13,0a3,3,0,0,1-3.31-3.16c-.07-2.83,0-5.66,0-8.48a3.25,3.25,0,0,1,3.32-3.16c2.78.1,5.58,0,8.37,0A3,3,0,0,1,79.23,21c0,2.72,0,5.44,0,8.15a3,3,0,0,1-3.3,3.31C74.53,32.36,73.11,32.44,71.7,32.44Z"/><path class="cls-1" d="M19,35.35c1.31,0,2.62.09,3.91,0a2.91,2.91,0,0,1,3.48,2.87,45.32,45.32,0,0,1-.14,9.67,2.73,2.73,0,0,1-2.78,2.24q-4.58,0-9.15,0a2.77,2.77,0,0,1-2.8-2.85c-.05-3-.05-6,0-9a2.8,2.8,0,0,1,3-2.86Z"/><path class="cls-1" d="M89.39,35.35c1.3,0,2.61.09,3.91,0a2.9,2.9,0,0,1,3.49,2.84,44.19,44.19,0,0,1-.12,9.55,2.74,2.74,0,0,1-3,2.39H85a2.84,2.84,0,0,1-3.06-3c0-3,0-5.95,0-8.93a2.8,2.8,0,0,1,3-2.88Z"/><path class="cls-1" d="M36.47,32.44H31.89a2.69,2.69,0,0,1-2.75-2.61c-.05-3.17,0-6.33,0-9.5a2.76,2.76,0,0,1,2.66-2.64c3.13,0,6.25,0,9.38,0a2.78,2.78,0,0,1,2.7,2.72c0,3.17,0,6.33,0,9.5a2.69,2.69,0,0,1-2.61,2.52C39.67,32.45,38.07,32.44,36.47,32.44Z"/><path class="cls-1" d="M46.79,25c0-1.49,0-3,0-4.46a2.8,2.8,0,0,1,2.77-2.85q4.47,0,8.94,0a2.83,2.83,0,0,1,3,3q0,4.52,0,9.05a2.8,2.8,0,0,1-2.78,2.73H49.61a2.64,2.64,0,0,1-2.81-2.86C46.79,28.05,46.79,26.52,46.79,25Z"/><path class="cls-1" d="M46.79,42.66c0-1.56,0-3.12,0-4.69a2.68,2.68,0,0,1,2.62-2.62c3.09,0,6.18,0,9.27,0a2.82,2.82,0,0,1,2.86,2.91q0,4.47,0,8.94a2.81,2.81,0,0,1-2.86,2.9q-4.52,0-9,0a2.72,2.72,0,0,1-2.84-2.86C46.79,45.72,46.79,44.19,46.79,42.66Z"/><path class="cls-1" d="M36.73,35.35H41.2A2.69,2.69,0,0,1,43.88,38c0,3,0,6.11,0,9.16A2.81,2.81,0,0,1,41,50.11c-3,0-6,0-8.93,0a2.82,2.82,0,0,1-2.89-2.87c0-3,0-6,0-8.94A2.81,2.81,0,0,1,32,35.35Z"/></g></g></svg>