<svg xmlns="http://www.w3.org/2000/svg" viewBox="0 0 116.01 130.55"><defs><style>.cls-1{fill:#a6b2d7;}</style></defs><title>Ресурс 7яясссссс</title><g id="Слой_2" data-name="Слой 2"><g id="Слой_1-2" data-name="Слой 1"><path class="cls-1" d="M56,130.55c-3.42-.87-6.14-3.07-9.11-4.78-3.58-2-7.11-4.21-10.65-6.32-.43-.26-1-.5-.9-1.09s.68-.68,1.17-.83a25.73,25.73,0,0,0,6.33-2.84,2,2,0,0,1,2.38,0c2.13,1.34,4.3,2.63,6.46,3.91,1.76,1.05,3.54,2.06,5.3,3.11a1.31,1.31,0,0,0,1.49,0c3.16-1.84,6.34-3.65,9.51-5.49s6.5-3.78,9.75-5.67q6-3.45,12-6.9l11.15-6.47,5.14-3a1.48,1.48,0,0,0,.8-1.4q0-27.62,0-55.22a1.4,1.4,0,0,0-.83-1.35c-4.22-2.42-8.42-4.88-12.64-7.31s-8.52-4.86-12.76-7.31Q73.77,17.67,67,13.71q-4.14-2.4-8.3-4.77a2.09,2.09,0,0,0-2.2.18l-9.26,5.33L37,20.41,19,30.8q-4.71,2.73-9.43,5.42A1.43,1.43,0,0,0,8.7,38a3.77,3.77,0,0,1,0,1V91.49c0,.41,0,.81-.05,1.22a1.38,1.38,0,0,0,.62,1.37c4.62,2.67,9.14,5.54,13.91,7.92,2.57,1.28,5.34,1.6,8-.23a5.93,5.93,0,0,0,2.53-5.21q0-26.68,0-53.39c0-2,.41-2.36,2.36-2.36,1.66,0,3.32,0,5,0a1.59,1.59,0,0,1,1.8,1.8c0,18.68.09,37.35-.06,56,0,5.16-2.26,9.49-7.12,11.92A16.77,16.77,0,0,1,26,111.92c-4.14-.47-7.64-2.47-11.17-4.41-3.2-1.77-6.37-3.61-9.53-5.46C2,100.08,0,97.23,0,93.2Q0,65.13,0,37.07a9.09,9.09,0,0,1,3.87-7.41,75.06,75.06,0,0,1,7.42-4.45c4-2.34,8-4.62,11.94-6.93L33,12.63C37,10.32,40.94,8,45,5.72,48,4,50.88,2,54.07.59c.5-.23,1-.39,1.56-.59h4.26c2.12.11,3.8,1.29,5.54,2.3Q87.1,14.89,108.8,27.43c2,1.17,4.08,2.28,5.42,4.33A10.12,10.12,0,0,1,116,37.37q0,27.9,0,55.81a9.69,9.69,0,0,1-4.9,8.69c-5.33,3.27-10.81,6.3-16.22,9.44q-15.75,9.16-31.52,18.27a9.78,9.78,0,0,1-3.47,1Z"/><path class="cls-1" d="M72.38,92.58a39.41,39.41,0,0,1-12.82-1.65c-6-1.9-10.42-5.46-11.94-11.9-.3-1.29-.32-2.59-.49-3.89a1.59,1.59,0,0,1,1.76-1.84c2,0,4,0,6,0,1.08,0,1.41.36,1.57,1.41.46,2.91,1.36,5.56,4.15,7.11a15.55,15.55,0,0,0,5.05,1.62,46.38,46.38,0,0,0,9.78.37,19.77,19.77,0,0,0,8.1-1.71,5.91,5.91,0,0,0,3.32-4.28c.59-2.77-.16-4.36-2.73-5.59a13,13,0,0,0-2.45-.92,80.93,80.93,0,0,0-10.39-1.7,56,56,0,0,1-13-2.39c-3.1-1.09-5.89-2.65-7.68-5.56a11.24,11.24,0,0,1-1.65-5.43,15.38,15.38,0,0,1,1.14-7.39,14.91,14.91,0,0,1,8.4-7.59,29.4,29.4,0,0,1,8.39-1.91,48,48,0,0,1,6.88-.12c4.36.23,8.68.84,12.62,3a15.17,15.17,0,0,1,8,11.52c.11.66.2,1.32.33,2a1.58,1.58,0,0,1-1.47,2c-2.07,0-4.13,0-6.19,0a1.37,1.37,0,0,1-1.42-1.17,15.7,15.7,0,0,0-1.59-4.11,8.45,8.45,0,0,0-5.24-3.64A32.73,32.73,0,0,0,68.3,48a16.09,16.09,0,0,0-6.71,1.54,5.55,5.55,0,0,0-2.84,6.61,3.73,3.73,0,0,0,2.42,2.14,36,36,0,0,0,6.93,1.64c5.21.85,10.5,1.26,15.65,2.48a23.72,23.72,0,0,1,8,3.17,10.54,10.54,0,0,1,4.66,7.24A16.45,16.45,0,0,1,95.47,82a14.12,14.12,0,0,1-5.67,6.61,26.19,26.19,0,0,1-10.88,3.63A46.19,46.19,0,0,1,72.38,92.58Z"/></g></g></svg>