<svg xmlns="http://www.w3.org/2000/svg" viewBox="0 0 191.51 186.79"><defs><style>.cls-1{fill:#5c6bc0;}</style></defs><title>Ресурс 2яясссссс</title><g id="Слой_2" data-name="Слой 2"><g id="Слой_1-2" data-name="Слой 1"><path class="cls-1" d="M95.76,0A95.76,95.76,0,0,0,65.48,186.61c4.79.89,6.55-2.07,6.55-4.6,0-2.29-.09-9.83-.13-17.83-26.64,5.79-32.26-11.3-32.26-11.3-4.36-11.06-10.64-14-10.64-14-8.69-5.94.65-5.82.65-5.82,9.62.68,14.68,9.87,14.68,9.87,8.55,14.64,22.41,10.4,27.87,8,.86-6.19,3.33-10.42,6.08-12.81C57,135.65,34.65,127.44,34.65,90.75A37.06,37.06,0,0,1,44.52,65c-1-2.4-4.27-12.14.93-25.33,0,0,8-2.57,26.34,9.82a90.63,90.63,0,0,1,48,0c18.28-12.39,26.3-9.82,26.3-9.82,5.22,13.19,1.94,22.94.94,25.34a37,37,0,0,1,9.85,25.7c0,36.78-22.4,44.88-43.72,47.25,3.43,3,6.5,8.8,6.5,17.74,0,12.81-.11,23.12-.11,26.27,0,2.55,1.72,5.54,6.57,4.6A95.77,95.77,0,0,0,95.76,0"/></g></g></svg>