<svg xmlns="http://www.w3.org/2000/svg" viewBox="0 0 89.03 101.19"><defs><style>.cls-1{fill:#a6b2d7;}.cls-2{fill:#8e9ac5;}</style></defs><title>Ресурс 3яясссссс</title><g id="Слой_2" data-name="Слой 2"><g id="Слой_1-2" data-name="Слой 1"><path class="cls-1" d="M87.75,0H1.24C1,0,.79,0,.56,0,.16,0,0,.13,0,.54S0,1.63,0,2.17C.24,4.57.47,7,.69,9.36c.13,1.44.23,2.88.36,4.32.22,2.37.45,4.73.67,7.1.14,1.52.28,3,.38,4.58.16,2.37.43,4.73.65,7.1.13,1.46.23,2.93.37,4.4.21,2.31.45,4.62.65,6.93.15,1.58.23,3.17.38,4.75.2,2.25.45,4.5.65,6.76.14,1.55.2,3.11.38,4.66.28,2.42.46,4.84.66,7.27.11,1.41.22,2.82.36,4.23.21,2.26.49,4.51.65,6.76.12,1.61.27,3.23.4,4.83.19,2.43.49,4.85.63,7.28a1,1,0,0,0,.87,1.06c4.51,1.22,9,2.43,13.51,3.69,6.81,1.89,13.61,3.83,20.42,5.71a4.41,4.41,0,0,0,2.42.31q9.27-2.59,18.55-5.16l16-4.43c1.42-.39,1.42-.41,1.43-1.88,0-.2,0-.4,0-.6.22-2.37.45-4.73.67-7.1.13-1.47.23-2.94.37-4.4.21-2.32.44-4.62.65-6.93.14-1.53.24-3.06.38-4.58.21-2.28.45-4.56.65-6.85.14-1.52.23-3.05.37-4.57q.32-3.65.67-7.27c.14-1.47.27-2.94.37-4.41.16-2.34.44-4.68.65-7,.14-1.5.23-3,.37-4.5.21-2.36.45-4.73.66-7.1.13-1.46.24-2.93.37-4.4.21-2.34.45-4.68.66-7,.14-1.49.24-3,.37-4.49.21-2.37.5-4.73.64-7.1C89.07-.18,89.18,0,87.75,0ZM72.52,20Q72,26.2,71.41,32.42c-.38,4.15-.73,8.31-1.13,12.46-.33,3.49-.6,7-.92,10.49s-.64,7.05-1,10.58c-.25,2.87-.57,5.74-.74,8.62A1.39,1.39,0,0,1,66.51,76c-6.91,1.92-13.82,3.85-20.74,5.74a1.34,1.34,0,0,1-.84,0c-1.4.14-2.65-.49-4-.84-4.59-1.24-9.15-2.58-13.73-3.86-1.74-.49-3.49-.9-5.23-1.36-.31-.08-.56-.19-.46-.68a10.11,10.11,0,0,0-.21-2.68c-.14-1.65-.25-3.31-.45-5-.13-1.13-.22-2.26-.31-3.39-.07-.88-.22-1.77-.23-2.67a25.18,25.18,0,0,0-.24-2.59c-.05-.5,0-.67.55-.67,3.31,0,6.63,0,9.94,0,.52,0,.84.72.87,1.55.07,1.6.21,3.2.32,4.81a5.94,5.94,0,0,1,.1,1.18c-.1.9.32,1.31,1.15,1.52,2.35.6,4.7,1.21,7,1.89a42.88,42.88,0,0,1,4.3,1.21.27.27,0,0,0,.36-.14,1.88,1.88,0,0,1,1.07-.48c3.2-.87,6.39-1.76,9.6-2.56a1.51,1.51,0,0,0,1.35-1.54c.22-2.93.53-5.85.77-8.78.08-1,.16-1.93.27-2.89s0-1.14-1-1.14H45.92a2,2,0,0,1-1.32-.22l-14,0H20.27c-.56,0-.77,0-.77-.75,0-1.55-.29-3.09-.39-4.63-.13-1.74-.45-3.46-.44-5.22,0-.46.19-.61.61-.58.23,0,.46,0,.69,0q19.14,0,38.29,0c.33,0,1,.31.87-.5a3.42,3.42,0,0,1,0-1.85c.2-2.54.46-5.09.68-7.64a.77.77,0,0,1,.26-.6c.43-.82,0-.9-.7-.89H18.53c-1,0-1.15-.18-1.07-1.2A19,19,0,0,0,17.24,26c-.13-1.75-.38-3.5-.45-5.26a2.06,2.06,0,0,0,0-.35c-.28-1.71-.28-1.71,1.41-1.71H43.39l1.2,0a1.54,1.54,0,0,1,1.14-.26q12.74,0,25.46,0C72.51,18.44,72.64,18.63,72.52,20Z"/><path class="cls-2" d="M44.93,81.79l10.23-2.88c3.85-1.08,7.7-2.17,11.56-3.22a.76.76,0,0,0,.67-.8c.29-3.55.57-7.1.89-10.64s.67-7,1-10.45c.26-2.89.47-5.79.73-8.68s.55-5.66.81-8.5c.2-2.23.36-4.48.56-6.72.26-2.86.54-5.72.81-8.58.06-.68.11-1.36.19-2,0-.41-.12-.59-.53-.56-.22,0-.45,0-.68,0H45.7l-1.11,0c0-3.37,0-6.75,0-10.12,0-.66.17-.88.86-.87q17.22,0,34.46,0c.84,0,.92.34.85,1-.19,1.74-.33,3.5-.5,5.25-.21,2.26-.44,4.51-.65,6.77-.13,1.47-.24,2.95-.37,4.42-.22,2.37-.45,4.74-.66,7.12-.14,1.49-.24,3-.38,4.5-.2,2.31-.43,4.63-.64,6.94-.14,1.47-.25,3-.38,4.42-.22,2.37-.45,4.74-.66,7.11-.14,1.56-.24,3.12-.37,4.68-.21,2.31-.44,4.63-.65,6.94-.13,1.42-.25,2.83-.38,4.24l-.66,7.29c-.13,1.5-.24,3-.37,4.5q-.08,1-.18,2c-.05.51-.49.51-.83.61L64.69,87.8,47.27,92.64c-.68.19-1.39.32-2.06.53-.48.16-.62,0-.62-.44,0-3.4,0-6.8,0-10.2A1.06,1.06,0,0,1,44.93,81.79Z"/><path class="cls-2" d="M44.6,52.51l12.92,0c.52,0,.64.21.6.67-.14,1.58-.26,3.17-.4,4.76l-.63,6.88c-.06.59-.13,1.18-.18,1.78a.48.48,0,0,1-.41.47l-11.75,3.1c-.23-.2-.16-.47-.16-.72Q44.59,61,44.6,52.51Z"/><path class="cls-2" d="M60,30.73c-.22,3.37-.51,6.73-.91,10.09-.21.34-.54.35-.89.34-4.23,0-8.46,0-12.69,0-.66,0-.81-.22-.8-.84,0-3.17,0-6.34,0-9.51,0-.65.2-.82.83-.82q6.81,0,13.62,0C59.75,30,60.11,30.08,60,30.73Z"/></g></g></svg>