<svg xmlns="http://www.w3.org/2000/svg" viewBox="0 0 571.55 643"><defs><style>.cls-1{fill:#a6b2d7;}.cls-2{fill:#b5c0e1;}</style></defs><title>Ресурс 1яясссссс</title><g id="Слой_2" data-name="Слой 2"><g id="Слой_1-2" data-name="Слой 1"><path class="cls-1" d="M569.72,0H1.72C-.26,1.78-.07,4,.1,6.41,1,19.85,2.44,33.25,3.6,46.67,4.68,59.1,5.64,71.53,6.86,84c1.69,17.21,3.07,34.44,4.64,51.66,1.16,12.76,2.23,25.52,3.37,38.27,1.54,17.22,3.13,34.44,4.63,51.67q1.66,19.14,3.38,38.27C24.35,280.21,26,296.59,27.37,313c1.4,17.07,2.93,34.14,4.46,51.2q3.24,36,6.52,72c1.88,20.53,3.52,41.09,5.4,61.63,2.24,24.5,4.27,49,6.66,73.52.87,8.94,1.48,10.14,10,12.42,10.13,2.71,20.23,5.59,30.34,8.37,36.77,10.13,73.44,20.61,110.29,30.44,26.81,7.15,53,16.65,80.71,20.4h7c13.62-1.39,26.68-5.29,39.8-8.93Q390.11,617,451.73,599.91c20.69-5.76,41.48-11.18,62-17.36,5.68-1.71,6.76-3.5,7.12-9.37.55-9,1.51-17.9,2.34-26.84,1.63-17.71,3.06-35.44,4.75-53.14,1.18-12.42,2.06-24.86,3.28-37.26,1.7-17.21,3.06-34.44,4.64-51.65,1.17-12.75,2.23-25.51,3.39-38.26,1.51-16.72,3.09-33.43,4.52-50.16s2.95-33.45,4.42-50.17C550,245.33,552,225,553.79,204.62c1.82-20.54,3.47-41.09,5.4-61.61,2.25-24,4.35-48,6.52-72,2-21.85,4.08-43.7,5.8-65.58A6.09,6.09,0,0,0,569.72,0ZM464.9,134.44c-1.59,16.72-2.72,33.49-4.82,50.15-.84,6.63-2,7.48-8.69,7.61-9.83.19-19.66.06-29.48.06H297a55.26,55.26,0,0,1-10-.52c-13-1-26-.38-39-.47-17.33-.11-34.66-.06-52,0-7.62,0-8.2,1-7.52,8.47q2.24,24.34,4.4,48.7c.18,2.16.32,4.3.7,6.45.61,3.38,2.52,4.82,5.87,4.81,29-.1,58,.43,87-.29a41.29,41.29,0,0,1,8.45-.65q73,0,145.9,0c11.62,0,13.23,2.13,11.81,13.59-1.62,13-2.53,26.14-3.67,39.22q-2.25,25.57-4.65,51.14c-1.17,12.58-2.15,25.17-3.32,37.75-1.59,17.21-3.08,34.43-4.73,51.64-.76,7.94-1.36,15.89-2.1,23.84-.51,5.59-3.75,7.74-8.45,9-13.53,3.52-27,7.4-40.44,11.13q-44.52,12.31-89,24.67c-3,.83-6.27,2.93-9.44.12Q216,501,145.21,481.29c-4.05-1.12-5.48-2.75-5.75-7.06-.86-13.58-2.38-27.12-3.59-40.69-1.13-12.74-2.17-25.48-3.28-38.23-.63-7.11-1.27-14.22-2-21.32-.4-3.81.9-5.28,5-5.25q30.49.27,61,0c4.3,0,5.13,1.67,5.4,5.58,1.1,16.07,2.64,32.12,3.91,48.18.23,3,2.33,3.18,4.43,3.74q35.4,9.42,70.78,18.93c2,.53,3.83,1.22,5.74,0,1.42-2.86,4.14-3.57,6.91-4.34,20.17-5.65,40.48-10.79,60.67-16.38,6.84-1.89,7.54-3,8.13-9.91,1.51-17.69,3-35.39,4.71-53.07q1-10.41,1.8-20.85c.22-2.72-1-4-3.64-4.27-1.83-.16-3.66-.12-5.49-.12-21.79,0-43.59,0-65.38,0-2.76,0-5.79.51-7.7-2.38-2.52-1.27-5.23-.79-7.86-.79q-72.49,0-145,0c-6.33,0-6.94,1.24-7.54-6.81-1.51-20.21-3.82-40.35-5.65-60.53-1.51-16.54-2.73-33.1-4.22-49.64-1.5-16.71-3.22-33.4-4.78-50.1-1.36-14.55-2.59-29.12-4-43.67-.23-2.43.69-3.41,3-3.38,1.5,0,3,0,4.5,0h163c2.84,0,5.68.13,8.41-.85,1.94-2.45,4.72-2.18,7.35-2.2,11.5-.1,23,0,34.48,0H451.48c2.83,0,5.66,0,8.49.18,3.81.27,5.57,2.34,5.87,6.1C466.19,126.22,465.3,130.32,464.9,134.44Z"/><path class="cls-2" d="M286.81,520.83c46-12.72,91.85-25.65,137.92-38,7.53-2,7.22-7.06,7.7-12.17,1.57-16.85,2.69-33.74,4.21-50.6,1.83-20.32,4-40.61,5.8-60.92,1.52-16.86,2.69-33.74,4.19-50.6,1.13-12.72,2.53-25.42,3.8-38.13.08-.83.1-1.66.13-2.49.2-6.8.2-6.81-6.77-6.81l-157,0c-2.32-1.27-2.23-3.56-2.25-5.68q-.26-29.9,0-59.77c0-2.15,0-4.39,2.2-5.75l121-.11c15,0,30-.1,45,.06,3.62,0,4.71-1,5-4.76,1.72-19.82,3.81-39.61,5.79-59.41.72-7.29.41-7.67-6.84-7.67L286.72,118c0-21,.1-42-.08-63,0-4.44,1.09-6.09,5.85-6.09Q401.23,49.11,510,49c6,0,5.93.38,5.24,6.41-1.08,9.4-1.62,18.85-2.48,28.27-1.19,13-2.51,26.09-3.69,39.14-.84,9.26-1.48,18.53-2.31,27.79-1.18,13-2.48,26.09-3.68,39.14-.81,8.93-1.5,17.86-2.31,26.79-1.23,13.55-2.56,27.08-3.77,40.63-1.13,12.73-2.11,25.47-3.24,38.2-1.2,13.55-2.52,27.09-3.73,40.64-1.13,12.56-2.14,25.14-3.27,37.7-1.2,13.38-2.49,26.76-3.71,40.14-1.11,12.23-2.18,24.46-3.28,36.69-1.25,13.88-2.56,27.76-3.77,41.64-1.13,12.89-2.37,25.79-3.15,38.7-.51,8.41-.59,9.17-8.6,11.41Q405.52,558.71,346.83,575q-27.18,7.57-54.33,15.25c-5.56,1.57-5.78,1.51-5.77-3.93Q286.75,553.57,286.81,520.83Z"/><path class="cls-2" d="M286.82,333.81l78.93,0c6.25,0,6.62.79,5.95,7.07-1.45,13.68-2.58,27.39-3.84,41.08-1.18,12.71-2.44,25.41-3.48,38.13-.3,3.59-2.07,5-5.38,5.86-24.09,6.3-48.13,12.77-72.19,19.19Q286.81,389.49,286.82,333.81Z"/><path class="cls-1" d="M286.74,190l.06,71.2c-1.68,1.05-3.55.69-5.35.69-27.95,0-55.9-.06-83.85.1-4.08,0-5.75-.8-6.06-5.3-.93-13.7-2.44-27.36-3.71-41-.68-7.42-1.29-14.84-2-22.26-.31-3.22,1-4.34,4.24-4.33q46.16.14,92.33.05A8.63,8.63,0,0,1,286.74,190Z"/></g></g></svg>