<svg xmlns="http://www.w3.org/2000/svg" viewBox="0 0 101.02 101.02"><defs><style>.cls-1{fill:#a6b2d7;}</style></defs><title>Ресурс 5яясссссс</title><g id="Слой_2" data-name="Слой 2"><g id="Слой_1-2" data-name="Слой 1"><path class="cls-1" d="M101,50.55V1.29C101-.16,101.2,0,99.78,0H1.24C-.15,0,0-.16,0,1.2q0,49.3,0,98.62c0,1.33-.15,1.2,1.15,1.2H99.87c1.3,0,1.15.13,1.15-1.2ZM55,79a17.43,17.43,0,0,1-1.31,6.82,11.07,11.07,0,0,1-8.21,6.68c-4.61,1-9.1.81-13.27-1.68a14.58,14.58,0,0,1-5.29-5.83c-.18-.34-.17-.53.21-.76,2.18-1.29,4.36-2.59,6.51-3.94.59-.37.86-.21,1.13.33a9.72,9.72,0,0,0,2.31,2.94c1.92,1.69,5.54,1.61,7.22-.16a4.71,4.71,0,0,0,1.19-2.77,27.72,27.72,0,0,0,.18-3.41q0-15.11,0-30.21c0-.45.14-.58.53-.58h8.17c.48,0,.7.21.67.69,0,.2,0,.41,0,.61V63.4C55,68.58,55,73.77,55,79Zm38.16,1a12.29,12.29,0,0,1-3.87,9.24,14.28,14.28,0,0,1-7.08,3.42,22,22,0,0,1-15-2,16.73,16.73,0,0,1-6.63-6.56c-.27-.46-.21-.71.25-1,2.13-1.21,4.26-2.43,6.36-3.69.55-.34.82-.25,1.15.28,1.61,2.55,3.76,4.43,6.82,4.87,2.66.38,5.33.44,7.45-1.71a4.37,4.37,0,0,0-.47-6.36,27.57,27.57,0,0,0-5.8-3c-2.94-1.29-5.92-2.47-8.45-4.54a12.33,12.33,0,0,1-4.64-8.22,13.23,13.23,0,0,1,1.18-8,12.24,12.24,0,0,1,9.15-6.47,18.06,18.06,0,0,1,9,.51,13.38,13.38,0,0,1,7.51,6.34c.2.35,0,.49-.18.63l-6.41,4.1c-.47.3-.64,0-.87-.32a6.2,6.2,0,0,0-4.24-3.25c-1.89-.29-3.72-.25-5.15,1.37a4.23,4.23,0,0,0,0,5.44c1.41,1.55,3.31,2.26,5.15,3.07a48.11,48.11,0,0,1,9.25,4.75,12.15,12.15,0,0,1,5.31,9A18,18,0,0,1,93.14,79.9Z"/></g></g></svg>