<svg xmlns="http://www.w3.org/2000/svg" viewBox="0 0 141.41 139.48"><defs><style>.cls-1{fill:#a6b2d7;}</style></defs><title>Ресурс 6яясссссс</title><g id="Слой_2" data-name="Слой 2"><g id="Слой_1-2" data-name="Слой 1"><path class="cls-1" d="M0,5.55c.79-1,1.14-2.21,2.07-3.12A8,8,0,0,1,7.26,0c3.91-.29,7.41,1.09,10.87,2.61a32.7,32.7,0,0,1,9.36,5.9A4.46,4.46,0,0,0,31,9.46a31.6,31.6,0,0,1,8.83,1.17,32.54,32.54,0,0,1,8.45,3q3.81,2.22,7.48,4.66c2.26,1.52,4.47,3.12,6.61,4.79a94.91,94.91,0,0,1,11.4,10.47A114.1,114.1,0,0,1,83.84,46.68a48.76,48.76,0,0,1,4.92,9.42c1.45,3.67,3,7.28,4.7,10.87,1.26,2.73,2.49,5.47,3.9,8.12,1.55,2.9,2.64,6,4.39,8.82a4.65,4.65,0,0,0,2.11,1.93c3.68,1.61,7.42,3.07,11,5a77.33,77.33,0,0,1,7.74,5.06c3,2.1,5.79,4.49,8.66,6.77a28.74,28.74,0,0,1,4.24,4.7c.4.51.84,1,1.23,1.52.67.86.42,1.57-.64,1.87a47.78,47.78,0,0,1-8.81,1.78,45.44,45.44,0,0,0-8.26,1.79c-.83.23-1.67.41-2.58.64a10.12,10.12,0,0,0,3.53,3.7c2,1.45,4.31,2.57,6.4,3.93a40.32,40.32,0,0,1,7.76,6.58,92,92,0,0,0,6.3,6.8c.57.52.54,1.4,1,2v1.54c-1.5-.84-2.51-2.26-3.94-3.22-3.21-2.16-6.24-4.59-9.86-6.12a53.43,53.43,0,0,1-13.77-8.45A19.13,19.13,0,0,1,108.2,114c-.2-.53-.93-.89-.5-1.66a3.33,3.33,0,0,1,2-1.43,69.5,69.5,0,0,1,8-2.53,31,31,0,0,1,4-.54,69.25,69.25,0,0,1,7.89-.23c.13,0,.27,0,.48,0a2.63,2.63,0,0,0-1.28-1.61c-3.43-2.38-6.9-4.7-10.33-7.08-1.76-1.22-3.54-2.37-5.4-3.43a16.68,16.68,0,0,0-2.55-1c-2.87-1.09-5.75-2.13-8.71-3a10.16,10.16,0,0,1-5.88-4.74c-2.53-4-4.14-8.37-6.18-12.56-1.75-3.61-3.44-7.25-5.1-10.91-.79-1.74-1.52-3.51-2.17-5.31a44.62,44.62,0,0,0-3.4-6.68,72.46,72.46,0,0,0-5.85-8.75A87.38,87.38,0,0,0,63,31.37c-2.26-2.06-4.65-3.95-7.06-5.8a68.34,68.34,0,0,0-6.63-4.37,61.25,61.25,0,0,0-9-4.37,17.67,17.67,0,0,0-7.11-1.42c-2.39.08-4.75-.52-7.14-.69-1.25-.08-2.19-1.12-3.08-2a25.64,25.64,0,0,0-6.23-3.94c-1.88-1-3.84-1.72-5.79-2.51a6.35,6.35,0,0,0-4.65-.5A2.86,2.86,0,0,0,4.63,8.54a9.74,9.74,0,0,0,1.8,4.17c1.85,2.55,3.92,4.95,5.7,7.56A33.52,33.52,0,0,1,16.82,29c1.31,4.18,2.68,8.35,4.26,12.43,1.2,3.13,2.6,6.25,5.22,8.51,2.43,2.08,2.81,4.59,2,7.46-.49,1.66-1.12,3.27-1.76,4.88a24.84,24.84,0,0,0-1.69,6.8c-.34,3.41-.8,6.82,0,10.29.37,1.67.26,3.48.75,5.16.89,3.11,1.74,6.26,3.71,8.94a1.61,1.61,0,0,0,.17.28c.7.75,1.47,1.73,2.51,1.39.42-.14.52-1.48.61-2.29a57.6,57.6,0,0,1,.76-6.11,35.75,35.75,0,0,1,1.42-5.47,17,17,0,0,1,2.9-4.57c.53-.65,1.06-1.29,1.57-2s.84-.6,1.17.07a18.66,18.66,0,0,1,.76,1.78,88.51,88.51,0,0,0,4.22,9.75c1.43,2.94,3,5.82,4.67,8.61a92.09,92.09,0,0,0,9.31,13.14,33,33,0,0,0,3.86,3.62c.28.24.82.56.51,1s-.72,0-1.11-.23c-1.85-1-3.16-2.67-4.71-4-2.36-2.11-4.85-4.06-7.19-6.19a51.48,51.48,0,0,1-4-4.31,36.58,36.58,0,0,1-5.47-9.33,8.45,8.45,0,0,1-1-2.19,42.93,42.93,0,0,0-1.23,7.06,12.75,12.75,0,0,1-1.22,4.82,5.81,5.81,0,0,1-7.24,2.56A11.81,11.81,0,0,1,26,97.11a26.58,26.58,0,0,1-4.27-8.36c-2-5.54-2.13-11.26-1.88-17a41.81,41.81,0,0,1,2-10c.48-1.63.86-3.3,1.28-4.95.05-.17.05-.39.16-.51,1.15-1.18.28-2.15-.48-2.87A23.38,23.38,0,0,1,19,48.14a48,48,0,0,1-4-8.81,93.07,93.07,0,0,1-2.94-9c-.74-3.18-2.71-5.73-4.65-8.27C5,19,2.31,16,.63,12.38.46,12,.73,11.33,0,11.27Z"/><path class="cls-1" d="M36.05,29a4.88,4.88,0,0,1-1.78,4.15c-.49.44-.89.38-1.08-.24a22.55,22.55,0,0,0-4.6-7.51c-.72-.86-.65-1.09.45-1.29a6.25,6.25,0,0,1,3-.25,5.44,5.44,0,0,1,3.08,2.46C35.54,27.23,36.42,28,36.05,29Z"/></g></g></svg>