<svg xmlns="http://www.w3.org/2000/svg" viewBox="0 0 167.78 151"><defs><style>.cls-1{fill:#a6b2d7;}</style></defs><title>Ресурс 10яясссссс</title><g id="Слой_2" data-name="Слой 2"><g id="Слой_1-2" data-name="Слой 1"><path class="cls-1" d="M165.4,65.8c-2.91-5.95-7.76-10.21-13.19-13.83a69.56,69.56,0,0,0-13.9-7.11,1,1,0,0,1-.68-1.28,27.52,27.52,0,0,0,.72-6.18c.18-6.17.32-12.35-1.31-18.41-1.32-4.9-3.4-9.41-7-13a21.34,21.34,0,0,0-15-6,32.32,32.32,0,0,0-11.3,2A64.32,64.32,0,0,0,85,12.71a1.45,1.45,0,0,1-2.13.09A63.87,63.87,0,0,0,66.49,3C60.66.59,54.68-.72,48.34.51a20.46,20.46,0,0,0-10.77,5.7,24.21,24.21,0,0,0-5.07,7.65A38.72,38.72,0,0,0,29.38,28a69.35,69.35,0,0,0,.77,15.76.94.94,0,0,1-.71,1.14,72.34,72.34,0,0,0-11.6,5.66c-6,3.71-11.43,8-14.95,14.34A21,21,0,0,0,1.37,82.92C3.31,88.29,6.93,92.48,11.29,96a68,68,0,0,0,18.06,10.16c.72.28.91.64.8,1.3a52.83,52.83,0,0,0-.79,11.35,43.27,43.27,0,0,0,.8,10.73c1.37,6.64,3.88,12.63,9.38,17a20.56,20.56,0,0,0,11.77,4.41c6.36.41,12.28-1.35,18-4.05a76.79,76.79,0,0,0,13.86-8.8c.59-.45.84-.48,1.45,0a72.06,72.06,0,0,0,15.86,9.68c5.73,2.39,11.59,3.86,17.85,2.94a20.33,20.33,0,0,0,14.11-8.56c4.21-5.86,5.69-12.58,6-19.59a63,63,0,0,0-.76-15.08,1,1,0,0,1,.66-1.27,71.29,71.29,0,0,0,11.36-5.51c5.75-3.48,11-7.52,14.58-13.38C168.46,80.35,169,73.13,165.4,65.8ZM91.73,18A54.32,54.32,0,0,1,107,9.64a22.22,22.22,0,0,1,7.43-1.4c6.18.1,10.61,2.92,13.24,9.07a34.19,34.19,0,0,1,2.51,13.93,57.79,57.79,0,0,1-.68,10.49c-3.06-.78-6.09-1.67-9.18-2.35-4.45-1-8.94-1.73-13.44-2.4a1.44,1.44,0,0,1-1.13-.58,133.65,133.65,0,0,0-14.18-16C90.28,19.16,90.28,19.11,91.73,18ZM39.86,100A134.41,134.41,0,0,1,44.1,86,199.64,199.64,0,0,0,54.83,104.7c-3-.48-5.68-1.09-8.38-1.78-1.92-.48-3.83-1-5.75-1.55C40,101.18,39.63,100.89,39.86,100Zm1-50.4a122.37,122.37,0,0,1,14-3.27A213.3,213.3,0,0,0,44.07,65a145,145,0,0,1-4.24-14.15C39.57,49.85,40.26,49.78,40.82,49.62ZM52.75,84.71c-1.37-2.62-2.51-5.35-3.93-7.94a2.33,2.33,0,0,1,0-2.29A173.15,173.15,0,0,1,62.94,49.23a34.73,34.73,0,0,0,2.11-3.16c.82-1.57,2.31-1.59,3.69-1.68A129.49,129.49,0,0,1,84,43.87a109.55,109.55,0,0,1,11.6.24c1.85.08,3.69.36,5.53.53a1.09,1.09,0,0,1,.85.57,164.93,164.93,0,0,1,9.91,15.42c2.15,3.75,4.07,7.61,6,11.48.46.93.85,1.9,1.32,2.84a1.62,1.62,0,0,1-.16,1.54A180.54,180.54,0,0,1,108.55,96c-2,3.18-4.08,6.31-6.25,9.39a2.43,2.43,0,0,1-2,1.14c-3.45.08-6.87.65-10.33.59-1.59,0-3.21.23-4.75.17-3.85-.17-7.72,0-11.57-.4a47,47,0,0,0-4.89-.29,4.43,4.43,0,0,1-4-2.14A211,211,0,0,1,52.75,84.71ZM112.9,46.32a135.41,135.41,0,0,1,13.86,3.24c1,.28,1.32.6,1,1.77-1.13,4.52-2.48,9-4.08,13.71A215.38,215.38,0,0,0,112.9,46.32ZM123.62,86a131.48,131.48,0,0,1,4.3,14.11c.25.91-.31,1.09-1,1.28a116.32,116.32,0,0,1-12.22,3c-.51.09-1,.5-1.68.17A188.92,188.92,0,0,0,123.62,86ZM83,25.31c.69-.72,1.08-.62,1.72,0,3,3,6,5.93,8.82,9.13a12.87,12.87,0,0,1,.91,1.29c-7.15-.26-14.1-.31-21.15,0,.7-1.57,2-2.6,3.08-3.79C78.52,29.69,80.85,27.58,83,25.31ZM37.6,28.69c.27-5.82,1.43-11.46,5.34-16a12,12,0,0,1,7.88-4.18c5.83-.69,11,1.29,16.08,3.84a67.9,67.9,0,0,1,9.55,6c.9.66.88,1,.14,1.74-2.83,2.78-5.7,5.53-8.28,8.54-1.85,2.17-3.74,4.32-5.41,6.63a4.19,4.19,0,0,1-3.08,2,134.69,134.69,0,0,0-21.58,4.57A54,54,0,0,1,37.6,28.69Zm-7,69.05a60.85,60.85,0,0,1-14.75-8.87,24,24,0,0,1-6.35-8.05,15.1,15.1,0,0,1-1.26-5.2,16.22,16.22,0,0,1,4.44-10.31c5-5.67,11.52-9.2,18.36-12.19,1-.44.93.32,1.06.83.87,3.52,1.85,7,3,10.43a90,90,0,0,0,3.69,9.78c.61,1.27.11,2.21-.33,3.33a138.24,138.24,0,0,0-6.25,19.36C31.93,98,31.55,98.19,30.57,97.74Zm25.18,44.79c-7.64,1.18-13.34-2.66-16-9.56-2.37-6.06-2.25-12.36-2.13-18.67,0-1.39.37-2.78.5-4.17.06-.65.17-.89.91-.66a148.61,148.61,0,0,0,18.9,4.2,6.26,6.26,0,0,0,1.49.13c2.72-.24,3.42,2.18,4.77,3.68,1.86,2,3.49,4.29,5.34,6.34,2.16,2.4,4.46,4.69,6.71,7,.37.38.82.7,1.33,1.14C70.88,136.83,64.11,141.24,55.75,142.53Zm29.33-17a1.47,1.47,0,0,1-2.42,0c-3.29-3.21-6.37-6.62-9.62-10.28,7.29.34,14.35.36,21.63,0-.81,1.11-1.68,1.91-2.43,2.79C90,120.67,87.52,123.08,85.08,125.54Zm44.86-1.1a29.59,29.59,0,0,1-3,10.78,13.76,13.76,0,0,1-14.86,7.34c-7.5-1.18-13.77-4.83-19.81-9.08-.67-.47-1.31-1-2-1.45a153.64,153.64,0,0,0,11.81-12.83c1.15-1.41,2.31-2.79,3.39-4.25a2.75,2.75,0,0,1,2.09-1c4.25-.56,8.47-1.3,12.66-2.25,2.86-.65,5.72-1.34,8.52-2.23.62-.19.77,0,.85.59A62.48,62.48,0,0,1,129.94,124.44ZM155.74,85c-5,6-11.58,9.64-18.55,12.75-.92.41-1.34.32-1.62-.86a132.26,132.26,0,0,0-6.65-20.23,2.94,2.94,0,0,1,.07-2.46,137.91,137.91,0,0,0,6.64-20.1c.29-1.16.59-1.18,1.6-.74a56.73,56.73,0,0,1,13.82,8.07c4.06,3.39,7.57,7.23,8.41,12.78.07.45,0,.91.08,1.35A16,16,0,0,1,155.74,85Z"/><path class="cls-1" d="M83.82,91.5a15.8,15.8,0,0,1-16-16c.13-9.1,6.84-16.14,16.37-16,9.15.12,15.68,6.9,15.84,16A15.78,15.78,0,0,1,83.82,91.5Z"/></g></g></svg>