<svg xmlns="http://www.w3.org/2000/svg" viewBox="0 0 80 76.47"><defs><style>.cls-1{fill:#a6b2d7;}</style></defs><title>Ресурс 5</title><g id="Слой_2" data-name="Слой 2"><g id="Слой_1-2" data-name="Слой 1"><path class="cls-1" d="M0,52.24c2-5.11,4.15-10.15,8.53-13.75,1-.79,1.91-3.07,3.42-1.37,1.06,1.2,1.9,3.22-.06,4.88a22.49,22.49,0,0,0-5.51,7C1.06,59.46,7.57,70.89,19.29,71.18c13.19.32,22.62-6.45,29.93-16.83a4.12,4.12,0,0,0,.34-4.57c-1.44-3.34,0-6,3.18-7.3,2.71-1.11,5.45-.39,6.81,2.45,1.45,3,1.13,6.13-2.11,7.73-2.19,1.08-3.07,2.87-4.18,4.66C45,70.62,28.66,78.42,15.58,75.61,7.42,73.86,2.55,68.89,0,61.24Z"/><path class="cls-1" d="M80,61.24c-5.79,14.15-18.63,18.9-33.78,12.31,1.73-3,3.8-3.73,7.31-2.69,8.43,2.49,15.16.33,19.15-5.51S76,52.51,70.8,45.45a30.17,30.17,0,0,0-4.73-5.11c-6.44-5.42-14-8.13-22.33-8.91a5.86,5.86,0,0,0-5.36,1.77c-2.44,2.56-5.4,2.47-7.89-.11a5.18,5.18,0,0,1-.42-7.26c2.2-2.84,5.16-3.21,7.84-.94,1.74,1.48,3.54,1.5,5.5,1.68C60.91,28.18,73.93,36,80,53.24Z"/><path class="cls-1" d="M16,26.66A31.66,31.66,0,0,1,23.07,8c10.06-12.08,26.67-10.13,33.68,4a42.57,42.57,0,0,1,3,9C60,22,61.15,24.18,59,24.48c-1.61.22-3.67-.24-4-2.79a23.81,23.81,0,0,0-3-8.42C46.43,3.15,34,2.12,26.78,11.17,19.67,20,19.07,38.3,25.45,47.65c.89,1.31,2,1.41,3.27,1.84,3.26,1.15,4.92,3.52,4.06,7-.74,3-3,4.41-6,4.06-3.64-.42-5.24-2.77-4.86-6.27a9.18,9.18,0,0,0-1.2-5.21C17.71,42.82,15.89,36.3,16,26.66Z"/></g></g></svg>