<svg xmlns="http://www.w3.org/2000/svg" viewBox="0 0 56.1 56"><defs><style>.cls-1{fill:#a6b2d7;}</style></defs><title>Ресурс 3</title><g id="Слой_2" data-name="Слой 2"><g id="Слой_1-2" data-name="Слой 1"><path class="cls-1" d="M28.15,0C11.16-.14-.16,14.22,0,28.17a28.05,28.05,0,0,0,56.1-.25C56.14,12.16,42.69-.3,28.15,0ZM39.73,29.28a.75.75,0,0,0-.09.29l.09-.29c0,.68,0,1.36,0,2h0c0,.77.25,1.61-1.07,1.62-2.53,0-2.68,0-2.78-1.39,0-.46,0-.91,0-1.36V27h0c0-1.59,0-3.18,0-4.77h0c0-1.54,0-3.08-.07-4.62,0-.58.18-.77.76-.8,3.16-.2,3.16-.21,3.13,2.92m4.1,25.91c.92,1.13.87,1.33-.6,2.52-1.15.92-1.44.88-2.34-.26h0L40.21,47h0l-.91-1.14c-.37-.53-.95-.92-1.15-1.58h0a1.06,1.06,0,0,1-.5-.65h0a4.78,4.78,0,0,1-1.12-1.37l-.69-.91a4.44,4.44,0,0,1-1.06-1.4,5.41,5.41,0,0,1-1.21-1.56,1,1,0,0,1-.49-.66L23.93,26,20.6,21.76v1.51c0,5,0,10,0,15,0,.9-.16,1.25-1.15,1.23-2.67-.07-2.67,0-2.67-2.74,0-6.28,0-12.56,0-18.84,0-.75.18-.93,1-1,2.71-.39,4.46.59,6.09,2.87,3.52,5,7.41,9.65,11.14,14.46"/></g></g></svg>