<svg xmlns="http://www.w3.org/2000/svg" viewBox="0 0 589.34 610.96"><defs><style>.cls-1{fill:#a2b3d9;}.cls-2{fill:#a3b3d9;}</style></defs><title>Ресурс 17яясссссс</title><g id="Слой_2" data-name="Слой 2"><g id="Слой_1-2" data-name="Слой 1"><path class="cls-1" d="M588.07,372.38c-2.75-6.61-8.46-8.23-15.07-8.22-11.2,0-21.85,3.76-32.9,4.58-12.68.95-25.37,2.24-37.87-1.82-4.45-1.44-4.39-3-2.06-6.58q14.52-22.32,26.76-46a600.34,600.34,0,0,0,45.74-115.46c8.91-31.93,15.21-64.26,13.29-97.63-.77-13.52-3.54-26.55-12.54-37.54a185.55,185.55,0,0,0-23.54-24.27,162.18,162.18,0,0,0-54-30c-28-9.37-56.82-10.87-86-8.31a228.74,228.74,0,0,0-51.51,10.22,10.77,10.77,0,0,1-5.82.61c-17.84-3.83-35.79-5.8-54.14-4.88-22.86,1.14-44.14,6.85-63.48,19.16a6.64,6.64,0,0,1-6.47.68,308,308,0,0,0-38.61-11.28c-26-5.64-52.15-9.1-78.92-6.57-19.08,1.81-37.12,6.32-53.9,15.76S27.45,47.74,18.07,64.45C5.58,86.73,1.73,111.21.28,136.19c-1.29,22.17,2.11,44,6.33,65.67,4.74,24.37,10,48.64,16.56,72.6,11.91,43.4,24.94,86.38,47.13,125.92,7.59,13.53,16.59,26,29.13,35.54,14,10.64,30.86,11.41,45.44,1.76,12-7.93,19.72-20,29.1-30.42,11.08-12.36,21.64-25.19,33.36-37,1.31-1.31,2.37-2,4.27-1a69.48,69.48,0,0,0,29.53,7.94c2.06.06,3.42.7,1.53,3-2.86,3.45-5.66,6.94-8.46,10.43-6.08,7.58-15,9.32-23.69,11.51-9.77,2.48-19.91,3.65-29,8.42-12.21,6.39-14.19,18.73-4.22,28.08,7.51,7,17,9.91,26.89,12,22.66,4.86,44.55,3.28,65.25-7.75,4.92-2.62,9.39-6.08,14.57-9.48.9,14.12.29,27.58.85,41.05.83,19.9,1.32,39.78,3.19,59.64,1.37,14.51,4.24,28.45,11.26,41.39,12.58,23.16,31.83,35.56,58.3,35.45,14.52-.06,28.5-3.93,42.12-8.84C422.17,594,437.77,579,445.13,556c7.75-24.11,9.26-49.36,12.81-74.22,2.51-17.52,4.15-35.16,6.19-52.74.35-3,1.54-4.61,4.95-3.51,6.87,2.22,14.19,2.44,21.15,2.24a179.84,179.84,0,0,0,34-3.72c23.41-5.21,44-15.44,60-33.74C588.81,385.17,590.86,379.1,588.07,372.38ZM442.52,19.29c33.57,1.92,64.63,11.53,91.48,32.46a145.21,145.21,0,0,1,24.57,24.61c4.95,6.26,6.69,13.86,7.56,21.7,3.37,30.49-3.08,59.84-10.56,89-8.15,31.76-19.68,62.33-33.36,92.16-9.82,21.42-21.2,41.94-33.21,62.16-.79,1.32-1.46,2.92-3.56,3.71-.33-4.89,3.22-8,4.74-11.73a105.43,105.43,0,0,0,8-36.56c.52-17.94-1.68-35.64-3.88-53.4-1.6-12.95-.55-25.93,1.44-38.91,1.58-10.24,2.61-20.62,3.68-31,2.32-22.51-7-41.16-17.05-59.86A219.35,219.35,0,0,0,440.91,59.4a197.75,197.75,0,0,0-45-32.28c-1.76-.93-3.53-1.83-5.28-2.78-.26-.14-.43-.43-.82-.84C407.34,20.06,424.88,18.27,442.52,19.29ZM474.16,239.7c.93,11,2.58,21.92,3.57,32.9,1.56,17.33,1.93,34.57-6,51.68-13.6-27.82-30.21-53.15-40.72-81.52-5-13.46-9.89-27-9.86-41.67.05-19.74,10-27.58,27.05-30.82a81.93,81.93,0,0,1,28.16-.14c2.57.41,3.39.72,3.09,3.94C477.43,195.93,472.27,217.56,474.16,239.7ZM189.66,360.29c-16.74,17.65-32.66,36-48.07,54.86-10.09,12.31-22.85,13-34.24,1.82C93.12,403,84.14,385.81,75.88,368c-9.28-20-16.55-40.73-23.15-61.69A928,928,0,0,1,28,209.11c-3-15-6.39-30.05-7.52-45.27A217.21,217.21,0,0,1,20.89,124c1.48-13.53,4-26.75,9.23-39.33C42.32,55.45,64.16,37.92,95,31.1a142,142,0,0,1,30.88-3.76c25.54.06,50.56,4.29,75.12,11.29,3.92,1.11,8,1.91,11.88,4.06a166.4,166.4,0,0,0-26.35,38.49c-9.09,18.2-14.54,37.5-18.37,57.33-2.25,11.67-3.12,23.51-4.26,35.34-1.49,15.48.84,30.71,1.15,46.05.38,19.22-1.81,38.27-3.67,57.39-2.25,23,2.77,44.78,16.42,64a78.25,78.25,0,0,0,11.58,13.58C191.44,356.73,192,357.84,189.66,360.29Zm50.14-2.15c-11.07-2-21.34-6-30.2-13-22-17.39-31.4-40.74-28.13-67.94,3-25.22,3-50.4,2.15-75.55-.29-8.21,2.3-11.61,8.33-14.75,14.75-7.69,29.89-14.33,46.87-14.63,17.39-.3,27.43,7.57,31,24.56,3.69,17.79,7.23,35.65,6.22,54.4,1.61,23.48-5.82,45.23-15.64,66.45a225.56,225.56,0,0,0-13,35.3C246,357.66,244,358.89,239.8,358.14Zm39.84,51.05C269,421.42,256.19,430,239.9,432.79c-15.71,2.67-30.7.24-46.06-5.89,7.12-3.66,14.12-4.39,20.85-5.55,18.79-3.22,32.93-13,43.22-28.77a45.46,45.46,0,0,1,8.51-9.05c3.83-3.35,7.65-.83,10.82,1.46C285.56,391,286.4,401.44,279.64,409.19Zm171.57-29.34a45.8,45.8,0,0,0-4,17.75c0,14.44-2,28.65-3.92,42.9-1.63,12.26-2.53,24.62-4.22,36.87-2.42,17.45-4.4,35-7.56,52.31-1.78,9.79-3.89,19.42-8.33,28.38-5.8,11.67-15.13,19.38-27.07,24.26-12.17,5-24.6,8.45-37.86,8.92-19.93.71-33-9.25-42.1-26-6.15-11.31-7.8-23.63-9.09-36.2-4.55-44.61-2.13-89.36-3.07-134-.32-15.19-14-33.17-33-32.79-4.37.09-5.53-.85-4-5.35,5.43-16.17,12.51-31.65,18.95-47.41,5.14-12.57,7.88-25.77,9.36-39.33.79-7.32.73-14.57.8-21.86.17-18.43-3-36.45-6.53-54.47-2.3-11.72-6.63-22.15-15.61-30.29-6.6-6-14.61-8.93-23.23-10.33-21.87-3.54-41.76,3.39-61.34,11.84-1.54.66-3.14,2.79-4.81,1.35-1.4-1.22.33-3.08.46-4.67a206.92,206.92,0,0,1,8.14-41.66c6-20.5,14.94-39.47,28.6-56.16,15.55-19,35.48-30.62,59.22-35.42,16.62-3.35,33.45-2.88,50.37-.56a168.44,168.44,0,0,1,74.09,28.9c17.89,12.39,32.85,27.75,45.61,45.28a207.1,207.1,0,0,1,24.14,43.25c.58,1.4,1.52,2.85.42,4.17-1,1.17-2.41.2-3.69.14-21.68-1-43-.41-59.46,16.8-6.08,6.36-9.09,14.38-10.4,23.15-3.44,23,3.62,44.18,11.89,65,9,22.66,20.71,44,32.9,65.15,3.47,6,5.53,12.75,9.07,18.78,4.79,8.15,10.92,15.31,17,23.4C463.15,365.2,455.26,370.2,451.21,379.85Zm68.16,25.28c-11.56,2.21-23.22,3.62-35,3a65.2,65.2,0,0,1-10.8-1.34c-6.4-1.43-7.78-4.62-6.25-12,1.82-8.74,7.38-13.13,15.79-14.81a4.12,4.12,0,0,1,3.54.93c9,6.1,19.31,7.53,29.69,8.14,14.74.86,29.33-1,44-3.46A88.45,88.45,0,0,1,519.37,405.13Z"/><path class="cls-1" d="M243.15,181.2c5.37-.58,10.86,1,16,4,4.1,2.43,5.23,6.87,2.63,10.63-4.48,6.46-11,8.22-18.36,7.26-6.33-.83-11-4.57-13.79-10.16-3.06-6.16.08-11.16,7-11.72C238.53,181.07,240.54,181.2,243.15,181.2Z"/><path class="cls-2" d="M452.67,176.23c1.87-.31,3.92.37,6,.9,5.48,1.38,7.18,5.4,4.28,10.33-5.57,9.48-19.74,11.32-27.5,3.58-4-4-3.33-8.69,1.58-11.3A35.06,35.06,0,0,1,452.67,176.23Z"/></g></g></svg>