<svg xmlns="http://www.w3.org/2000/svg" viewBox="0 0 184 138.17"><defs><style>.cls-1{fill:#a6b2d7;}</style></defs><title>Ресурс 11яясссссс</title><g id="Слой_2" data-name="Слой 2"><g id="Слой_1-2" data-name="Слой 1"><path class="cls-1" d="M177.2,85.46c-5-4.33-11-6-17.45-6.27a37.09,37.09,0,0,0-17.37,3.5c-.36.17-.66.34-.94-.2-1.94-3.71-3.65-7.46-3.8-11.79-.11-3.43.87-6.58,1.93-9.74.67-2-.11-3.25-2.2-3.4a37.17,37.17,0,0,0-5.17,0c-2.46.17-4.3,1.07-4.77,3.91a24.37,24.37,0,0,1-1.55,5.58,143.47,143.47,0,0,1-7.82,14.76,20.08,20.08,0,0,1-2.39,3.87c-2.23-3.28-2.84-6.89-2.91-10.61-.05-3,1-5.75,1.93-8.52.74-2.16-.2-3.51-2.53-3.61q-2.1-.08-4.2,0c-3.15.13-4.62,1-5.08,3.35-.81,4.09-2.73,7.76-4.35,11.54-1.7,4-3.53,7.9-5.29,11.86-2.4,5.41-4.76,10.84-7.49,16.1a3,3,0,0,1-1.17,1.43c-.5-4,.79-7.68,1.64-11.39s2-7.57,3-11.36a2.93,2.93,0,0,0-2-3.79,4.27,4.27,0,0,0-3.68.22,1.06,1.06,0,0,1-.22-1.07,9.43,9.43,0,0,0,0-4.72c-.42-2.25-1.32-4.18-3.7-5a7.45,7.45,0,0,0-4.78-.06,26.08,26.08,0,0,0-12,8.42,14.92,14.92,0,0,1-4.37,3.72Q51.05,86,43.83,90.09c-.92.52-1.37.44-2-.25a74.59,74.59,0,0,0-8.54-7.45c-4.85-3.87-10-7.33-14.07-12.16-3.42-4.09-5.67-8.48-5.09-14.1A24,24,0,0,1,17.9,45.59C21.4,40,26.28,35.77,31.51,31.9a113,113,0,0,1,10.91-7A114.38,114.38,0,0,1,60.6,16.3a73,73,0,0,1,18.9-4.47c6.09-.49,12.13-.61,18,1.52,2.9,1.05,5.61,2.41,7.08,5.3,2.11,4.15,1.38,8.33-.37,12.36a35.55,35.55,0,0,1-9.5,12.64,53.15,53.15,0,0,1-17.14,10,65.28,65.28,0,0,1-12.39,3.08,29.38,29.38,0,0,1-13-.65,15.77,15.77,0,0,1-7.66-4.71c-.41-.46-.94-1-1.68-.5a1.41,1.41,0,0,0-.53,1.94,12.87,12.87,0,0,0,.85,2.05,17.72,17.72,0,0,0,11,7.71,38.06,38.06,0,0,0,12.83,1,80.56,80.56,0,0,0,12.18-1.89C89.64,59.19,98.81,54.39,106,46.12c5.19-5.94,8.91-12.54,9.88-20.47a21.1,21.1,0,0,0-1.55-11.51c-2.52-5.54-7.12-8.7-12.47-10.94C93-.52,83.67-.36,74.37.54A68,68,0,0,0,58.81,4.32a141.33,141.33,0,0,0-17.55,7.46A110.51,110.51,0,0,0,16.41,28.36C10.3,33.93,5.08,40.07,1.83,47.75-.64,53.61-.75,59.4,2.36,65.13S10,75.37,15,79.43s10.06,7.42,15.23,10.95a35.84,35.84,0,0,1,5.47,4.27c-3.7,2-7.32,3.85-10.77,6C19.33,104.27,13.75,108,9.82,113.5c-3.61,5.08-5.24,10.71-3.11,16.88,1.1,3.19,2.85,6,6.37,6.94a25.14,25.14,0,0,0,13.84-.25,30.59,30.59,0,0,0,11.17-6.13A30.47,30.47,0,0,0,46,120.45a28,28,0,0,0,2.48-9.14c.5-5.06.48-10-1.75-14.75-.2-.43-.38-.73.22-1.06,2.64-1.48,5.25-3,7.89-4.52.27-.15.61-.52.93-.22s0,.64-.06,1c-1.14,4.76-2.13,9.52-1.61,14.48a27.92,27.92,0,0,0,4.25,12.4c2.31,3.62,8.7,3.53,10.91.08a47.57,47.57,0,0,0,2.91-5c1.15-2.39,2.27-4.8,3.59-7.58,0,2,0,3.59,0,5.18a10.48,10.48,0,0,0,.82,4.06c1.73,4,5.16,4.71,8.32,1.71a26.64,26.64,0,0,0,4.73-6.67A221.84,221.84,0,0,0,101.4,86.55c.95-2.32,2-4.6,3.09-7.09.14.7.23,1.13.32,1.57a43.25,43.25,0,0,0,4.48,12.27c.32.6.74,1.21.16,1.93s-1.1,1.53-1.68,2.27c-3.41,4.4-7.22,8.46-10.53,12.94-1.63,2.2-1.11,4.57,1.31,5.44a8,8,0,0,0,3,.5,25.59,25.59,0,0,0,12.06-3.92,13.61,13.61,0,0,0,6.38-7.91,16.69,16.69,0,0,0,0-8.1c-.33-1.57-1.56-3.06-1.32-4.5s1.56-2.71,2.41-4c.13-.21.29-.4.42-.61,2.75-4.27,5.15-8.73,7.62-13.38a44.83,44.83,0,0,0,4.29,12.72c.54.94.31,1.46-.41,2.13a34.07,34.07,0,0,0-7.77,9.58c-1.3,2.63-2.28,5.36-1.74,8.4a4.58,4.58,0,0,0,5.37,3.54,26.85,26.85,0,0,0,9.7-4.4,16.16,16.16,0,0,0,6.19-7.65c1.08-3.13.4-6.16-.58-9.14-.31-.94-.18-1.3.79-1.61a30.12,30.12,0,0,1,9.63-1.7,58.92,58.92,0,0,1,7,.26c6,.82,11.54,2.57,15.49,7.54,2.77,3.49,3.73,8.49,1,12.16a13.6,13.6,0,0,1-3.9,3.45,1.28,1.28,0,0,0-.73,1.63c.28.65.92.55,1.45.44,4.21-.82,8.72-6.15,9-10.47C184.35,94.49,181.9,89.51,177.2,85.46ZM25.74,126.84a12.1,12.1,0,0,1-3.19.67c-3.84.2-5.37-1.83-5-5.49a18.23,18.23,0,0,1,5.93-11.22c4.74-4.54,10.22-8,15.76-11.43.81-.49,1.25-.57,1.42.67a24.62,24.62,0,0,1,.53,4.85C41.5,114.57,34.56,123.79,25.74,126.84ZM78.18,79.15A23.8,23.8,0,0,1,77,84.49a202.39,202.39,0,0,1-8.16,21.57,27.79,27.79,0,0,1-1.68,2.81c-.29.48-.6.92-1.25.93s-1-.66-1.17-1.18a14.62,14.62,0,0,1-.93-6.15,33.9,33.9,0,0,1,8.92-22.75,9.11,9.11,0,0,1,3.23-2.1C77.58,76.89,78.31,77.37,78.18,79.15ZM104.08,110c2.77-3.28,5.72-6.26,8.29-9.86C112.44,104.49,107.23,109.5,104.08,110Zm33.31-15.64c-.42,4.51-1.69,7.18-6.52,9.38-.24.11-.51.38-.8,0s-.08-.43,0-.68a20.75,20.75,0,0,1,4.26-8.72c.61-.71,1.21-1.44,1.84-2.13s.92-.62.94.34C137.1,93.25,137.54,93.83,137.39,94.38Z"/></g></g></svg>