<svg xmlns="http://www.w3.org/2000/svg" viewBox="0 0 124.57 140.62"><defs><style>.cls-1{fill:#d6dcee;}.cls-2{fill:#707da7;}.cls-3{fill:#a6b2d7;}</style></defs><title>Ресурс 16яясссссс</title><g id="Слой_2" data-name="Слой 2"><g id="Слой_1-2" data-name="Слой 1"><path class="cls-1" d="M.05,70.24c0-11.33,0-22.66,0-34a2,2,0,0,1,1.22-2Q12.4,28,23.5,21.7c7.15-4,14.26-8.12,21.4-12.16C50.35,6.45,55.83,3.4,61.28.3a1.92,1.92,0,0,1,2.12,0Q74.95,6.9,86.52,13.4l23.12,13.05c4.57,2.58,9.12,5.18,13.69,7.75a2.06,2.06,0,0,1,1.24,2q0,34,0,68.07a1.82,1.82,0,0,1-1,1.9c-4.6,2.51-9.15,5.12-13.7,7.71-4.89,2.78-9.76,5.58-14.66,8.35-4.56,2.58-9.16,5.1-13.72,7.68-4.34,2.44-8.65,4.92-13,7.38-1.81,1-3.64,2.05-5.45,3.09a1.29,1.29,0,0,1-1.4,0c-5.44-3.1-10.88-6.22-16.34-9.3-4.43-2.51-8.88-5-13.32-7.47-5.55-3.14-11.09-6.32-16.64-9.46-4.43-2.5-8.86-5-13.33-7.45a3.14,3.14,0,0,1-2-3.21C.11,92.43.05,81.33.05,70.24Z"/><path class="cls-2" d="M32,51l9-4.94Q51,40.55,61.1,35a2,2,0,0,1,2.19,0c5.82,3.24,11.65,6.44,17.49,9.65L92.42,51c-2.7,1.57-5.25,3-7.81,4.52C77.42,59.69,70.23,63.81,63.06,68a1.48,1.48,0,0,1-1.75,0Q52,62.54,42.63,57.18Z"/><path class="cls-2" d="M60,104.16c-3.07-1.67-5.91-3.2-8.74-4.75L36,91c-1.76-1-3.52-2-5.31-2.9a1.31,1.31,0,0,1-.82-1.33q0-15.39,0-30.77c0-1,.36-1,1.06-.55q14,8.1,28.08,16.18A1.8,1.8,0,0,1,60,73.39c0,9.8,0,19.6,0,29.4Z"/><path class="cls-2" d="M64.36,104.09v-1.32c0-9.75,0-19.51,0-29.27a1.92,1.92,0,0,1,1.1-1.89q14-8.06,28.06-16.14c.8-.47,1.06-.5,1.05.57q0,15.25,0,30.53A1.43,1.43,0,0,1,93.76,88q-14.06,7.68-28.09,15.41C65.31,103.65,64.93,103.81,64.36,104.09Z"/><path class="cls-3" d="M7.61,70.91q0-13.72,0-27.44c0-.37-.19-.86.16-1.07s.67.21,1,.4c4.81,2.76,9.58,5.57,14.44,8.23a3.72,3.72,0,0,1,2.32,3.81c-.13,11.17-.07,22.34-.05,33.51a1.74,1.74,0,0,1-1,1.8c-5.29,3-10.52,6.06-15.78,9.1-1,.58-1.09.52-1.09-.66Z"/><path class="cls-3" d="M116.76,71.09V98.53c0,1.24-.09,1.3-1.14.7-5.36-3.1-10.7-6.21-16.07-9.27-.65-.37-.64-.86-.64-1.43V70.35c0-5.64,0-11.28,0-16.92a1.55,1.55,0,0,1,.88-1.54l16.17-9.34c1.06-.61.82.26.82.76Q116.78,57.2,116.76,71.09Z"/><path class="cls-3" d="M114.41,38.29c-5.77,3.31-11.43,6.55-17.08,9.82a.81.81,0,0,1-.92.1c-4-2.19-7.93-4.35-11.88-6.53-3.4-1.87-6.78-3.76-10.17-5.63-3.12-1.73-6.25-3.46-9.39-5.16a1.08,1.08,0,0,1-.62-1.09q0-9.5,0-19c0-.68.06-.89.8-.46q9.5,5.43,19,10.79c6.19,3.49,12.38,7,18.57,10.43l10.92,6.16C113.88,37.86,114.08,38,114.41,38.29Z"/><path class="cls-3" d="M9.91,38.23,59.78,10.06c.34.32.22.64.22.92,0,6.17,0,12.35,0,18.53A1.49,1.49,0,0,1,59.15,31c-4.47,2.42-8.93,4.88-13.38,7.34q-8.62,4.77-17.25,9.56a1.58,1.58,0,0,1-1.84,0C21.15,44.68,15.58,41.5,9.91,38.23Z"/><path class="cls-3" d="M64.47,130.39c-.21-.27-.11-.58-.11-.87,0-6.37,0-12.73,0-19.1a1.84,1.84,0,0,1,1.18-1.84c6.77-3.68,13.51-7.43,20.27-11.14,2.89-1.59,5.82-3.13,8.71-4.73a.8.8,0,0,1,.92,0l15,8.71c.69.4,1.38.81,2.09,1.17.54.28.77.47.05.86-2.92,1.63-5.82,3.29-8.73,4.94q-8.41,4.77-16.84,9.54c-4.36,2.47-8.74,4.92-13.1,7.38L65.41,130A1.51,1.51,0,0,1,64.47,130.39Z"/><path class="cls-3" d="M11.16,103,16.43,100c3.75-2.16,7.51-4.3,11.23-6.5a2.94,2.94,0,0,1,3.41-.18c5.82,3.34,11.74,6.54,17.63,9.78q5.23,2.88,10.51,5.71c.51.28.82.53.82,1.19,0,6.67,0,13.34,0,20,0,.14,0,.28-.08.59C43.67,121.37,27.5,112.23,11.16,103Z"/></g></g></svg>